<?xml version="1.0" standalone="no"?>
<!DOCTYPE svg PUBLIC "-//W3C//DTD SVG 20010904//EN"
 "http://www.w3.org/TR/2001/REC-SVG-20010904/DTD/svg10.dtd">
<svg version="1.0" xmlns="http://www.w3.org/2000/svg"
 width="1024.000000pt" height="1024.000000pt" viewBox="0 0 1024.000000 1024.000000"
 preserveAspectRatio="xMidYMid meet">

<g transform="translate(0.000000,1024.000000) scale(0.100000,-0.100000)"
fill="#000000" stroke="none">
<path d="M5065 8575 c-22 -8 -41 -15 -42 -15 -2 0 -114 -89 -250 -198 -268
-213 -534 -424 -625 -493 -31 -24 -105 -82 -163 -128 -58 -46 -108 -81 -112
-78 -3 3 4 26 16 50 12 24 27 69 33 98 22 109 -28 227 -117 273 -39 20 -54 21
-430 21 -214 0 -402 -3 -417 -8 -47 -13 -95 -64 -114 -119 -25 -76 -16 -200
18 -259 25 -43 64 -78 101 -92 16 -6 17 -32 17 -344 0 -330 0 -339 -20 -351
-26 -16 -457 -362 -752 -604 -122 -101 -304 -248 -403 -327 -329 -264 -343
-281 -352 -396 -7 -88 10 -141 66 -197 82 -82 189 -96 289 -38 18 11 78 58
135 104 288 238 415 342 1072 869 490 393 902 720 1230 979 138 108 320 252
405 319 132 104 449 353 487 382 8 6 123 -79 376 -280 200 -158 467 -369 592
-468 190 -149 800 -637 1965 -1569 96 -77 225 -181 285 -231 135 -113 181
-138 255 -138 180 0 294 184 216 348 -29 62 -65 96 -286 271 -176 140 -482
387 -835 673 -172 139 -553 444 -995 796 -91 72 -304 241 -475 375 -342 269
-730 580 -844 677 -40 34 -93 72 -118 84 -57 28 -154 34 -208 14z"/>
<path d="M5050 7645 c-52 -40 -187 -146 -300 -235 -113 -89 -263 -207 -335
-263 -71 -56 -251 -199 -400 -317 -148 -119 -561 -449 -917 -733 l-648 -517 0
-1070 0 -1070 374 0 375 0 3 673 c4 642 5 677 26 782 32 162 124 457 152 488
4 5 20 -18 34 -50 15 -32 48 -93 73 -137 l46 -78 -22 -69 c-12 -38 -32 -113
-43 -166 -20 -93 -22 -131 -25 -770 l-4 -673 603 -1 c332 -1 871 -1 1198 0
327 1 828 1 1113 1 l517 0 0 644 c0 595 -2 653 -20 758 -10 62 -30 150 -43
195 l-24 81 47 86 c26 46 56 105 65 131 10 25 21 48 25 50 18 11 122 -290 154
-448 31 -151 36 -260 36 -874 l0 -623 370 0 370 0 0 1063 c0 584 -4 1067 -8
1073 -8 11 -1173 943 -1637 1309 -159 126 -333 263 -385 305 -52 42 -221 175
-375 295 -154 119 -285 221 -290 226 -7 5 -48 -21 -105 -66z m178 -235 c51
-31 66 -78 58 -182 -3 -49 -4 -88 -3 -88 2 0 18 22 36 49 53 84 130 113 201
76 119 -62 92 -255 -39 -272 l-40 -6 19 -25 c31 -38 53 -127 45 -177 -19 -129
-131 -176 -282 -120 l-67 26 -63 -26 c-139 -55 -251 -13 -284 108 -14 53 1
130 36 181 l24 36 -28 0 c-38 0 -92 38 -113 80 -36 70 -13 149 54 190 69 42
140 17 206 -70 40 -53 58 -64 48 -29 -17 56 -18 154 -3 191 20 47 69 78 122
78 23 0 54 -9 73 -20z m152 -985 c162 -22 318 -68 443 -131 l51 -26 60 21
c132 46 200 39 362 -39 109 -53 385 -233 528 -344 l88 -70 -6 -58 c-8 -76 -59
-230 -110 -332 -89 -176 -246 -376 -295 -376 -23 0 -56 42 -76 101 -8 23 -33
130 -56 238 -76 369 -141 504 -299 626 -32 25 -61 45 -65 45 -3 0 5 -19 19
-42 85 -149 226 -807 212 -994 -18 -253 -142 -505 -364 -744 -12 -14 -33 -45
-45 -70 -12 -25 -29 -51 -37 -58 -25 -21 -101 -65 -105 -61 -2 3 10 20 27 39
54 62 112 153 140 224 16 38 27 70 26 72 -2 1 -34 -27 -72 -62 -157 -148 -311
-218 -536 -245 -273 -32 -528 55 -744 256 -33 30 -61 53 -63 52 -6 -7 28 -92
64 -157 32 -59 77 -124 110 -158 22 -23 14 -24 -14 -4 -73 53 -286 314 -370
453 -72 120 -100 187 -133 319 -35 138 -33 243 8 460 65 343 121 548 183 673
16 31 25 57 20 57 -16 0 -110 -76 -145 -116 -110 -128 -154 -243 -220 -561
-65 -315 -100 -378 -176 -326 -93 62 -254 318 -323 510 -39 107 -62 230 -47
248 7 8 64 53 127 101 280 210 505 341 627 364 75 14 124 9 212 -21 l60 -21
53 26 c114 58 327 119 486 139 76 10 300 5 395 -8z m836 -2240 c82 -133 212
-450 230 -562 l7 -43 -1286 0 c-707 0 -1288 3 -1290 8 -2 4 14 66 37 137 44
135 124 314 202 446 l45 77 106 -109 c214 -220 396 -323 660 -376 106 -21 356
-23 453 -4 284 56 492 178 687 402 48 54 90 99 94 99 4 0 29 -34 55 -75z"/>
<path d="M4486 5880 c-48 -15 -95 -53 -120 -100 -33 -62 -40 -110 -26 -171 16
-66 78 -132 140 -149 125 -34 261 80 261 220 1 134 -130 237 -255 200z m60
-98 c19 -25 17 -86 -3 -105 -10 -8 -30 -19 -45 -22 -22 -6 -33 -1 -58 23 -38
38 -38 66 0 104 26 25 36 29 62 24 17 -3 37 -14 44 -24z"/>
<path d="M5755 5885 c-5 -2 -22 -6 -37 -9 -40 -9 -95 -61 -109 -103 -50 -152
53 -313 201 -313 115 0 190 78 190 197 -1 89 -47 170 -120 208 -26 14 -108 27
-125 20z m10 -92 c54 -54 29 -133 -43 -133 -46 0 -72 24 -72 67 0 64 75 107
115 66z"/>
<path d="M5025 5475 c-27 -8 -53 -14 -56 -15 -3 0 -18 -11 -33 -25 -54 -50
-22 -130 103 -253 l64 -63 -6 -55 c-16 -153 -148 -254 -335 -256 -78 0 -117
15 -175 71 l-38 36 27 -60 c47 -104 112 -183 163 -200 14 -4 19 -19 24 -65 6
-72 49 -167 102 -228 158 -181 437 -190 590 -20 71 79 106 158 120 271 4 31
11 47 20 47 8 0 39 24 68 53 50 51 88 113 102 170 6 24 4 23 -33 -12 -94 -90
-306 -81 -415 18 -47 42 -71 94 -81 174 l-8 58 75 72 c71 68 127 151 127 189
0 30 -44 68 -102 88 -69 24 -225 26 -303 5z m126 -878 c16 -96 30 -73 36 57 3
58 9 106 13 106 4 0 13 -7 20 -15 24 -29 117 -83 173 -101 l58 -18 -7 -40
c-16 -96 -77 -181 -159 -221 -58 -28 -175 -27 -231 2 -91 49 -150 129 -161
221 l-5 49 38 6 c49 8 130 48 169 84 l30 28 7 -45 c4 -25 13 -76 19 -113z"/>
<path d="M3925 3063 c-60 -17 -95 -67 -95 -135 0 -63 29 -104 84 -120 l45 -13
-44 -60 c-49 -65 -55 -89 -26 -104 52 -28 166 58 216 166 48 101 34 193 -37
246 -27 20 -104 31 -143 20z"/>
<path d="M1345 3053 c-11 -2 -29 -6 -41 -8 -42 -9 -44 -33 -44 -509 l0 -453
23 -21 c20 -19 35 -22 104 -22 122 0 126 5 131 164 l4 126 102 0 c207 0 339
68 405 209 23 49 26 68 26 156 -1 80 -5 109 -22 147 -49 106 -160 187 -284
208 -61 9 -362 12 -404 3z m378 -257 c48 -20 69 -50 75 -104 4 -43 1 -53 -24
-81 -34 -38 -79 -50 -181 -51 l-73 0 0 125 0 125 85 0 c50 0 99 -6 118 -14z"/>
<path d="M2233 3053 c-76 -7 -73 12 -73 -509 l0 -463 26 -20 c26 -20 38 -21
318 -21 272 0 293 1 324 20 32 20 32 20 32 102 0 46 -4 88 -8 94 -19 29 -56
35 -215 34 -89 0 -174 -1 -189 0 -28 0 -28 1 -28 65 l0 65 139 0 c177 0 184 4
189 111 3 64 1 78 -18 102 l-21 27 -145 0 -144 0 0 75 0 75 199 0 c240 0 231
-5 231 127 0 83 0 83 -32 103 -31 19 -50 20 -288 18 -140 -1 -274 -3 -297 -5z"/>
<path d="M2972 3035 c-25 -22 -27 -29 -27 -103 0 -116 6 -121 154 -124 l116
-3 3 -362 2 -362 28 -21 c24 -19 37 -21 109 -18 109 4 118 13 119 116 0 42 1
206 2 365 l2 287 113 0 c61 0 117 4 123 8 24 15 34 54 34 126 0 69 -2 76 -27
96 -26 20 -35 21 -375 20 l-349 -1 -27 -24z"/>
<path d="M4452 3042 c-161 -58 -247 -231 -197 -399 29 -97 124 -160 323 -213
88 -24 116 -41 127 -77 4 -17 -1 -30 -19 -48 -22 -22 -34 -25 -91 -25 -72 0
-163 26 -233 67 -42 24 -44 24 -64 6 -31 -28 -108 -139 -108 -156 0 -17 73
-73 135 -105 165 -83 402 -71 514 25 156 133 156 370 0 474 -24 16 -102 48
-173 71 -146 47 -183 70 -172 112 9 37 65 60 124 52 36 -5 100 -27 178 -62 12
-5 134 142 134 162 0 20 -56 63 -125 95 -64 30 -79 33 -185 36 -93 3 -125 0
-168 -15z"/>
<path d="M5848 3053 c-47 -7 -50 -21 -51 -205 l-2 -173 -152 -3 -153 -3 0 174
c0 215 5 207 -132 207 -105 0 -119 -7 -120 -57 0 -15 0 -227 1 -470 1 -523 -9
-483 120 -483 64 0 83 4 105 21 l26 20 0 170 0 169 149 0 149 0 6 -82 c4 -46
5 -123 4 -171 -3 -83 -1 -90 21 -108 35 -28 168 -27 205 2 l26 20 0 469 0 469
-26 20 c-21 17 -40 21 -88 20 -33 -1 -73 -4 -88 -6z"/>
<path d="M6500 3042 c-294 -77 -461 -426 -336 -704 84 -190 258 -304 461 -302
153 1 246 37 354 139 169 159 209 392 105 604 -106 216 -347 325 -584 263z
m220 -263 c195 -88 215 -363 32 -462 -105 -57 -243 -27 -316 69 -155 202 57
496 284 393z"/>
<path d="M7278 3053 c-82 -7 -78 16 -78 -506 l0 -458 25 -24 c22 -23 32 -25
110 -25 129 0 125 -7 125 240 0 164 2 200 14 200 8 0 16 -6 19 -13 8 -20 147
-218 175 -249 13 -14 30 -24 38 -21 7 2 51 59 98 126 47 67 92 130 100 140 32
41 36 21 36 -182 l0 -200 26 -20 c22 -18 41 -21 111 -21 76 0 86 2 108 25 l25
24 0 461 0 461 -26 26 c-25 25 -28 25 -122 19 -54 -4 -102 -13 -108 -19 -6 -7
-64 -94 -129 -194 -65 -101 -120 -183 -124 -183 -3 0 -36 46 -72 103 -37 56
-92 141 -123 189 -32 49 -66 92 -76 98 -18 10 -55 10 -152 3z"/>
<path d="M8425 3055 c-5 -2 -22 -6 -36 -9 -47 -10 -49 -26 -49 -497 0 -475 2
-492 53 -504 12 -3 159 -5 325 -3 l304 3 19 24 c27 33 27 159 0 192 -19 24
-22 24 -230 27 l-211 3 0 65 0 64 139 0 c125 0 141 2 165 21 24 19 26 26 26
98 0 116 2 115 -177 121 l-148 5 -3 73 -3 72 199 0 c240 0 231 -5 233 119 2
132 18 126 -319 128 -152 1 -281 0 -287 -2z"/>
</g>
</svg>
